<?xml version="1.0" encoding="utf-8"?>

<!DOCTYPE svg PUBLIC "-//W3C//DTD SVG 1.1//EN" "http://www.w3.org/Graphics/SVG/1.1/DTD/svg11.dtd">
<!-- Uploaded to: SVG Repo, www.svgrepo.com, Generator: SVG Repo Mixer Tools -->
<svg height="800px" width="800px" version="1.1" id="_x32_" xmlns="http://www.w3.org/2000/svg" xmlns:xlink="http://www.w3.org/1999/xlink" 
	 viewBox="0 0 512 512"  xml:space="preserve">
<style type="text/css">
	.st0{fill:#000000;}
</style>
<g>
	<path class="st0" d="M263.61,248.796c6.156,7.526,22.58,8.898,26.682-2.034C273.873,235.813,263.61,248.796,263.61,248.796z"/>
	<path class="st0" d="M251.157,246.627c-18.386-8.898-28.466,1.78-29.059,3.56c13.047,11.864,25.5,3.559,25.5,3.559
		s0,18.966,2.373,23.119c2.368,4.152,14.822-1.78,14.822-1.78l-10.674,0.594C254.119,275.678,255.008,250.475,251.157,246.627z"/>
	<path class="st0" d="M392.076,0H119.916C96.822,0,78.102,18.729,78.102,41.83v428.356c0,23.102,18.72,41.814,41.814,41.814h272.161
		c23.093,0,41.822-18.712,41.822-41.814V41.83C433.898,18.729,415.17,0,392.076,0z M119.161,69.856
		c0.008-13.212,10.712-23.924,23.933-23.924h38.703v9.11h-24.585l-28.932,28.94v24.577h-9.119V69.856z M143.085,466.085
		c-13.212-0.008-23.932-10.712-23.924-23.932l-0.008-38.704h9.11l0.009,24.584l28.94,28.941h24.576l0.009,9.11H143.085z
		 M314.907,294.068c-3.5-4.136-7.712-6.678-12.063-8.203c-2.009,3.135-4.314,6.068-6.894,8.746
		c13.212,20.407-3,39.017,16.822,51.526c-12.805,4.576-24.36-15.441-27.61-33.238c-0.542-2.966-1.598-5.559-2.932-7.881
		c-3.186,1.712-6.56,3.119-10.081,4.187c5.437,30.932-24.394,39.339-11.648,63.542c-14.678-2.661-14.678-28.017-8.009-46.694
		c1.822-5.102,1.928-10.034,1.068-14.576c-3.805-0.153-7.504-0.712-11.076-1.593c-11.072,21.593-35.242,16.949-36.152,40.356
		c-10.373-8.797,1.186-28.814,14.966-40.526c2.318-1.966,4.042-4.186,5.39-6.525c-3.098-1.932-5.988-4.152-8.636-6.627
		c-24.085,20.238-46.306-1.441-60.912,21.712c-5.025-14.034,16.928-26.712,36.441-30.271c5.314-0.966,9.627-3.339,13.123-6.339
		c-1.716-3.288-3.102-6.779-4.135-10.423c-24.229,1.203-32.292-22.034-53.008-11.119c2.428-13.39,25.542-13.39,42.576-7.305
		c2.865,1.017,5.657,1.406,8.356,1.406c0.119-3.712,0.59-7.322,1.399-10.814c-29.547-10.746-21.895-40.813-49.25-41.882
		c9.648-11.372,31.605,1.305,44.448,16.424c3.5,4.119,7.708,6.679,12.064,8.203c2.008-3.152,4.313-6.084,6.894-8.762
		c-13.208-20.39,3-39.017-16.822-51.509c12.805-4.593,24.361,15.424,27.611,33.221c0.542,2.965,1.601,5.559,2.936,7.881
		c3.187-1.696,6.555-3.102,10.072-4.17c-5.432-30.932,24.403-39.339,11.656-63.559c14.674,2.678,14.674,28.017,8.004,46.694
		c-1.822,5.119-1.924,10.051-1.063,14.576c3.8,0.169,7.5,0.712,11.067,1.611c11.072-21.594,35.242-16.95,36.157-40.356
		c10.377,8.796-1.182,28.813-14.966,40.525c-2.318,1.966-4.042,4.186-5.39,6.525c3.098,1.933,5.988,4.153,8.636,6.628
		c24.088-20.237,46.309,1.44,60.911-21.729c5.025,14.051-16.924,26.729-36.44,30.288c-5.318,0.967-9.628,3.339-13.127,6.339
		c1.72,3.288,3.101,6.78,4.136,10.407c24.228-1.186,32.296,22.051,53.016,11.136c-2.44,13.39-25.542,13.39-42.576,7.305
		c-2.865-1.017-5.662-1.407-8.365-1.407c-0.119,3.712-0.585,7.322-1.398,10.797c29.551,10.745,21.898,40.813,49.254,41.88
		C349.704,321.848,327.755,309.186,314.907,294.068z M392.831,442.153c-0.009,13.22-10.704,23.924-23.924,23.924h-38.712v-9.102
		h24.585l28.932-28.95v-24.576h9.119V442.153z M383.729,108.56l-0.009-24.586l-28.932-28.94h-24.585l-0.009-9.11h38.72
		c13.212,0.009,23.924,10.712,23.916,23.932l0.008,38.704H383.729z"/>
</g>
</svg>